Jinko-BoldFF.ufo
<glyph name="dollar" format="1">
  <advance width="1219"/>
  <unicode hex="0024"/>
  <outline>
    <contour>
      <point x="538" y="-275" type="line" smooth="no"/>
      <point x="538" y="-10" type="line" smooth="no"/>
      <point x="379" y="-8"/>
      <point x="175" y="48"/>
      <point x="66" y="123" type="curve" smooth="no"/>
      <point x="114" y="354" type="line" smooth="no"/>
      <point x="155" y="354" type="line" smooth="no"/>
      <point x="227" y="292"/>
      <point x="407" y="239"/>
      <point x="541" y="234" type="curve" smooth="no"/>
      <point x="541" y="590" type="line" smooth="no"/>
      <point x="289" y="647"/>
      <point x="75" y="733"/>
      <point x="75" y="1021" type="curve" smooth="yes"/>
      <point x="75" y="1245"/>
      <point x="254" y="1398"/>
      <point x="538" y="1427" type="curve" smooth="no"/>
      <point x="538" y="1601" type="line" smooth="no"/>
      <point x="688" y="1601" type="line" smooth="no"/>
      <point x="688" y="1429" type="line" smooth="no"/>
      <point x="818" y="1425"/>
      <point x="992" y="1380"/>
      <point x="1087" y="1324" type="curve" smooth="no"/>
      <point x="1049" y="1099" type="line" smooth="no"/>
      <point x="1005" y="1099" type="line" smooth="no"/>
      <point x="914" y="1154"/>
      <point x="802" y="1181"/>
      <point x="684" y="1185" type="curve" smooth="no"/>
      <point x="684" y="852" type="line" smooth="no"/>
      <point x="1028" y="776"/>
      <point x="1169" y="670"/>
      <point x="1169" y="425" type="curve" smooth="yes"/>
      <point x="1169" y="193"/>
      <point x="978" y="15"/>
      <point x="688" y="-6" type="curve" smooth="no"/>
      <point x="688" y="-275" type="line" smooth="no"/>
    </contour>
    <contour>
      <point x="694" y="241" type="curve" smooth="no"/>
      <point x="793" y="260"/>
      <point x="847" y="321"/>
      <point x="847" y="402" type="curve" smooth="yes"/>
      <point x="847" y="477"/>
      <point x="807" y="539"/>
      <point x="681" y="567" type="curve" smooth="no"/>
      <point x="681" y="237" type="line" smooth="no"/>
      <point x="684" y="238"/>
      <point x="691" y="239"/>
    </contour>
    <contour>
      <point x="547" y="875" type="curve" smooth="no"/>
      <point x="547" y="1183" type="line" smooth="no"/>
      <point x="457" y="1172"/>
      <point x="392" y="1114"/>
      <point x="392" y="1024" type="curve" smooth="yes"/>
      <point x="392" y="955"/>
      <point x="418" y="908"/>
    </contour>
  </outline>
</glyph>
<glyph name="parenright" format="1">
  <advance width="748"/>
  <unicode hex="0029"/>
  <outline>
    <contour>
      <point x="46" y="-349" type="line" smooth="no"/>
      <point x="46" y="-289" type="line" smooth="no"/>
      <point x="227" y="-89"/>
      <point x="395" y="198"/>
      <point x="395" y="566" type="curve" smooth="yes"/>
      <point x="395" y="939"/>
      <point x="216" y="1228"/>
      <point x="46" y="1421" type="curve" smooth="no"/>
      <point x="46" y="1481" type="line" smooth="no"/>
      <point x="333" y="1481" type="line" smooth="no"/>
      <point x="555" y="1232"/>
      <point x="699" y="962"/>
      <point x="699" y="566" type="curve" smooth="yes"/>
      <point x="699" y="194"/>
      <point x="553" y="-99"/>
      <point x="333" y="-349" type="curve" smooth="no"/>
    </contour>
  </outline>
</glyph>
<glyph name="plus" format="1">
  <advance width="1423"/>
  <unicode hex="002b"/>
  <outline>
    <contour>
      <point x="595" y="6" type="line" smooth="no"/>
      <point x="595" y="466" type="line" smooth="no"/>
      <point x="134" y="466" type="line" smooth="no"/>
      <point x="134" y="686" type="line" smooth="no"/>
      <point x="595" y="686" type="line" smooth="no"/>
      <point x="595" y="1134" type="line" smooth="no"/>
      <point x="830" y="1134" type="line" smooth="no"/>
      <point x="830" y="686" type="line" smooth="no"/>
      <point x="1291" y="686" type="line" smooth="no"/>
      <point x="1291" y="466" type="line" smooth="no"/>
      <point x="830" y="466" type="line" smooth="no"/>
      <point x="830" y="6" type="line" smooth="no"/>
    </contour>
  </outline>
</glyph>
<glyph name="comma" format="1">
  <advance width="467"/>
  <unicode hex="002c"/>
  <outline>
    <contour>
      <point x="63" y="-263" type="line" smooth="no"/>
      <point x="114" y="299" type="line" smooth="no"/>
      <point x="418" y="299" type="line" smooth="no"/>
      <point x="225" y="-263" type="line" smooth="no"/>
    </contour>
  </outline>
</glyph>
<glyph name="period" format="1">
  <advance width="574"/>
  <unicode hex="002e"/>
  <outline>
    <contour>
      <point x="287" y="-18" type="curve" smooth="yes"/>
      <point x="180" y="-18"/>
      <point x="92" y="70"/>
      <point x="92" y="176" type="curve" smooth="yes"/>
      <point x="92" y="284"/>
      <point x="180" y="371"/>
      <point x="287" y="371" type="curve" smooth="yes"/>
      <point x="395" y="371"/>
      <point x="482" y="284"/>
      <point x="482" y="176" type="curve" smooth="yes"/>
      <point x="482" y="70"/>
      <point x="395" y="-18"/>
    </contour>
  </outline>
</glyph>
<glyph name="zero" format="1">
  <advance width="1353"/>
  <unicode hex="0030"/>
  <outline>
    <contour>
      <point x="677" y="233" type="curve" smooth="yes"/>
      <point x="886" y="233"/>
      <point x="914" y="419"/>
      <point x="914" y="750" type="curve" smooth="yes"/>
      <point x="914" y="1074"/>
      <point x="879" y="1247"/>
      <point x="677" y="1247" type="curve" smooth="yes"/>
      <point x="471" y="1247"/>
      <point x="438" y="1075"/>
      <point x="438" y="750" type="curve" smooth="yes"/>
      <point x="438" y="416"/>
      <point x="465" y="233"/>
    </contour>
    <contour>
      <point x="677" y="-24" type="curve" smooth="yes"/>
      <point x="241" y="-24"/>
      <point x="99" y="283"/>
      <point x="99" y="750" type="curve" smooth="yes"/>
      <point x="99" y="1193"/>
      <point x="259" y="1504"/>
      <point x="677" y="1504" type="curve" smooth="yes"/>
      <point x="1114" y="1504"/>
      <point x="1254" y="1208"/>
      <point x="1254" y="750" type="curve" smooth="yes"/>
      <point x="1254" y="295"/>
      <point x="1091" y="-24"/>
    </contour>
  </outline>
</glyph>
<glyph name="four" format="1">
  <advance width="1277"/>
  <unicode hex="0034"/>
  <outline>
    <contour>
      <point x="724" y="0" type="line" smooth="no"/>
      <point x="724" y="245" type="line" smooth="no"/>
      <point x="51" y="245" type="line" smooth="no"/>
      <point x="51" y="485" type="line" smooth="no"/>
      <point x="582" y="1481" type="line" smooth="no"/>
      <point x="1057" y="1481" type="line" smooth="no"/>
      <point x="1057" y="480" type="line" smooth="no"/>
      <point x="1230" y="480" type="line" smooth="no"/>
      <point x="1230" y="245" type="line" smooth="no"/>
      <point x="1057" y="245" type="line" smooth="no"/>
      <point x="1057" y="0" type="line" smooth="no"/>
    </contour>
    <contour>
      <point x="356" y="480" type="line" smooth="no"/>
      <point x="724" y="480" type="line" smooth="no"/>
      <point x="724" y="1209" type="line" smooth="no"/>
    </contour>
  </outline>
</glyph>
<glyph name="greater" format="1">
  <advance width="1437"/>
  <unicode hex="003e"/>
  <outline>
    <contour>
      <point x="119" y="-15" type="line" smooth="no"/>
      <point x="119" y="234" type="line" smooth="no"/>
      <point x="989" y="574" type="line" smooth="no"/>
      <point x="119" y="916" type="line" smooth="no"/>
      <point x="119" y="1163" type="line" smooth="no"/>
      <point x="1339" y="678" type="line" smooth="no"/>
      <point x="1339" y="470" type="line" smooth="no"/>
    </contour>
  </outline>
</glyph>
<glyph name="B" format="1">
  <advance width="1392"/>
  <unicode hex="0042"/>
  <outline>
    <contour>
      <point x="146" y="0" type="line" smooth="no"/>
      <point x="146" y="1481" type="line" smooth="no"/>
      <point x="565" y="1481" type="line" smooth="yes"/>
      <point x="980" y="1481"/>
      <point x="1233" y="1411"/>
      <point x="1233" y="1083" type="curve" smooth="yes"/>
      <point x="1233" y="961"/>
      <point x="1164" y="849"/>
      <point x="1031" y="798" type="curve" smooth="no"/>
      <point x="1031" y="792" type="line" smooth="no"/>
      <point x="1210" y="757"/>
      <point x="1333" y="627"/>
      <point x="1333" y="445" type="curve" smooth="yes"/>
      <point x="1333" y="123"/>
      <point x="1070" y="0"/>
      <point x="734" y="0" type="curve" smooth="yes"/>
    </contour>
    <contour>
      <point x="488" y="244" type="line" smooth="no"/>
      <point x="715" y="244" type="line" smooth="yes"/>
      <point x="889" y="244"/>
      <point x="978" y="328"/>
      <point x="978" y="453" type="curve" smooth="yes"/>
      <point x="978" y="619"/>
      <point x="806" y="646"/>
      <point x="620" y="646" type="curve" smooth="yes"/>
      <point x="488" y="646" type="line" smooth="no"/>
    </contour>
    <contour>
      <point x="488" y="876" type="line" smooth="no"/>
      <point x="595" y="876" type="line" smooth="yes"/>
      <point x="815" y="876"/>
      <point x="911" y="918"/>
      <point x="911" y="1061" type="curve" smooth="yes"/>
      <point x="911" y="1197"/>
      <point x="813" y="1237"/>
      <point x="604" y="1237" type="curve" smooth="yes"/>
      <point x="488" y="1237" type="line" smooth="no"/>
    </contour>
  </outline>
</glyph>
<glyph name="F" format="1">
  <advance width="1167"/>
  <unicode hex="0046"/>
  <outline>
    <contour>
      <point x="146" y="0" type="line" smooth="no"/>
      <point x="146" y="1481" type="line" smooth="no"/>
      <point x="1137" y="1481" type="line" smooth="no"/>
      <point x="1137" y="1232" type="line" smooth="no"/>
      <point x="488" y="1232" type="line" smooth="no"/>
      <point x="488" y="883" type="line" smooth="no"/>
      <point x="1079" y="883" type="line" smooth="no"/>
      <point x="1079" y="636" type="line" smooth="no"/>
      <point x="488" y="636" type="line" smooth="no"/>
      <point x="488" y="0" type="line" smooth="no"/>
    </contour>
  </outline>
</glyph>
<glyph name="J" format="1">
  <advance width="1061"/>
  <unicode hex="004a"/>
  <outline>
    <contour>
      <point x="385" y="-24" type="curve" smooth="yes"/>
      <point x="207" y="-24"/>
      <point x="91" y="22"/>
      <point x="24" y="62" type="curve" smooth="no"/>
      <point x="84" y="304" type="line" smooth="no"/>
      <point x="84" y="304"/>
      <point x="210" y="233"/>
      <point x="356" y="233" type="curve" smooth="yes"/>
      <point x="506" y="233"/>
      <point x="572" y="335"/>
      <point x="572" y="566" type="curve" smooth="yes"/>
      <point x="572" y="1210" type="line" smooth="no"/>
      <point x="290" y="1210" type="line" smooth="no"/>
      <point x="290" y="1481" type="line" smooth="no"/>
      <point x="915" y="1481" type="line" smooth="no"/>
      <point x="915" y="443" type="line" smooth="yes"/>
      <point x="915" y="153"/>
      <point x="711" y="-24"/>
    </contour>
  </outline>
</glyph>
<glyph name="L" format="1">
  <advance width="1148"/>
  <unicode hex="004c"/>
  <outline>
    <contour>
      <point x="146" y="0" type="line" smooth="no"/>
      <point x="146" y="1481" type="line" smooth="no"/>
      <point x="489" y="1481" type="line" smooth="no"/>
      <point x="489" y="249" type="line" smooth="no"/>
      <point x="1124" y="249" type="line" smooth="no"/>
      <point x="1124" y="0" type="line" smooth="no"/>
    </contour>
  </outline>
</glyph>
<glyph name="M" format="1">
  <advance width="1780"/>
  <unicode hex="004d"/>
  <outline>
    <contour>
      <point x="146" y="0" type="line" smooth="no"/>
      <point x="146" y="1481" type="line" smooth="no"/>
      <point x="516" y="1481" type="line" smooth="no"/>
      <point x="893" y="687" type="line" smooth="no"/>
      <point x="1271" y="1481" type="line" smooth="no"/>
      <point x="1635" y="1481" type="line" smooth="no"/>
      <point x="1635" y="0" type="line" smooth="no"/>
      <point x="1293" y="0" type="line" smooth="no"/>
      <point x="1293" y="748" type="line" smooth="yes"/>
      <point x="1293" y="782"/>
      <point x="1298" y="929"/>
      <point x="1298" y="929" type="curve" smooth="no"/>
      <point x="1010" y="324" type="line" smooth="no"/>
      <point x="759" y="324" type="line" smooth="no"/>
      <point x="473" y="929" type="line" smooth="no"/>
      <point x="473" y="929"/>
      <point x="477" y="782"/>
      <point x="477" y="748" type="curve" smooth="yes"/>
      <point x="477" y="0" type="line" smooth="no"/>
    </contour>
  </outline>
</glyph>
<glyph name="N" format="1">
  <advance width="1584"/>
  <unicode hex="004e"/>
  <outline>
    <contour>
      <point x="146" y="0" type="line" smooth="no"/>
      <point x="146" y="1481" type="line" smooth="no"/>
      <point x="505" y="1481" type="line" smooth="no"/>
      <point x="505" y="1481"/>
      <point x="1113" y="598"/>
      <point x="1121" y="586" type="curve" smooth="no"/>
      <point x="1115" y="836" type="line" smooth="no"/>
      <point x="1115" y="1481" type="line" smooth="no"/>
      <point x="1439" y="1481" type="line" smooth="no"/>
      <point x="1439" y="0" type="line" smooth="no"/>
      <point x="1123" y="0" type="line" smooth="no"/>
      <point x="464" y="998" type="line" smooth="no"/>
      <point x="464" y="998"/>
      <point x="470" y="761"/>
      <point x="470" y="724" type="curve" smooth="yes"/>
      <point x="470" y="0" type="line" smooth="no"/>
    </contour>
  </outline>
</glyph>
<glyph name="O" format="1">
  <advance width="1577"/>
  <unicode hex="004f"/>
  <outline>
    <contour>
      <point x="791" y="233" type="curve" smooth="yes"/>
      <point x="1052" y="233"/>
      <point x="1130" y="452"/>
      <point x="1130" y="740" type="curve" smooth="yes"/>
      <point x="1130" y="1037"/>
      <point x="1050" y="1247"/>
      <point x="791" y="1247" type="curve" smooth="yes"/>
      <point x="527" y="1247"/>
      <point x="448" y="1041"/>
      <point x="448" y="740" type="curve" smooth="yes"/>
      <point x="448" y="441"/>
      <point x="527" y="233"/>
    </contour>
    <contour>
      <point x="790" y="-24" type="curve" smooth="yes"/>
      <point x="330" y="-24"/>
      <point x="99" y="258"/>
      <point x="99" y="740" type="curve" smooth="yes"/>
      <point x="99" y="1225"/>
      <point x="332" y="1504"/>
      <point x="790" y="1504" type="curve" smooth="yes"/>
      <point x="1248" y="1504"/>
      <point x="1478" y="1226"/>
      <point x="1478" y="740" type="curve" smooth="yes"/>
      <point x="1478" y="259"/>
      <point x="1249" y="-24"/>
    </contour>
  </outline>
</glyph>
<glyph name="R" format="1">
  <advance width="1415"/>
  <unicode hex="0052"/>
  <outline>
    <contour>
      <point x="146" y="0" type="line" smooth="no"/>
      <point x="146" y="1481" type="line" smooth="no"/>
      <point x="641" y="1481" type="line" smooth="yes"/>
      <point x="905" y="1481"/>
      <point x="1312" y="1474"/>
      <point x="1312" y="1064" type="curve" smooth="yes"/>
      <point x="1312" y="849"/>
      <point x="1226" y="727"/>
      <point x="1013" y="648" type="curve" smooth="no"/>
      <point x="1374" y="72" type="line" smooth="no"/>
      <point x="1374" y="0" type="line" smooth="no"/>
      <point x="1021" y="0" type="line" smooth="no"/>
      <point x="687" y="595" type="line" smooth="no"/>
      <point x="488" y="595" type="line" smooth="no"/>
      <point x="488" y="0" type="line" smooth="no"/>
    </contour>
    <contour>
      <point x="488" y="839" type="line" smooth="no"/>
      <point x="666" y="839" type="line" smooth="yes"/>
      <point x="868" y="839"/>
      <point x="967" y="884"/>
      <point x="967" y="1040" type="curve" smooth="yes"/>
      <point x="967" y="1182"/>
      <point x="890" y="1237"/>
      <point x="658" y="1237" type="curve" smooth="yes"/>
      <point x="488" y="1237" type="line" smooth="no"/>
    </contour>
  </outline>
</glyph>
<glyph name="U" format="1">
  <advance width="1478"/>
  <unicode hex="0055"/>
  <outline>
    <contour>
      <point x="738" y="-24" type="curve" smooth="yes"/>
      <point x="365" y="-24"/>
      <point x="128" y="168"/>
      <point x="128" y="496" type="curve" smooth="yes"/>
      <point x="128" y="1481" type="line" smooth="no"/>
      <point x="472" y="1481" type="line" smooth="no"/>
      <point x="472" y="516" type="line" smooth="yes"/>
      <point x="472" y="320"/>
      <point x="566" y="233"/>
      <point x="739" y="233" type="curve" smooth="yes"/>
      <point x="906" y="233"/>
      <point x="1007" y="317"/>
      <point x="1007" y="518" type="curve" smooth="yes"/>
      <point x="1007" y="1481" type="line" smooth="no"/>
      <point x="1350" y="1481" type="line" smooth="no"/>
      <point x="1350" y="497" type="line" smooth="yes"/>
      <point x="1350" y="175"/>
      <point x="1127" y="-24"/>
    </contour>
  </outline>
</glyph>
<glyph name="Y" format="1">
  <advance width="1360"/>
  <unicode hex="0059"/>
  <outline>
    <contour>
      <point x="512" y="0" type="line" smooth="no"/>
      <point x="512" y="614" type="line" smooth="no"/>
      <point x="-22" y="1481" type="line" smooth="no"/>
      <point x="350" y="1481" type="line" smooth="no"/>
      <point x="690" y="924" type="line" smooth="no"/>
      <point x="1021" y="1481" type="line" smooth="no"/>
      <point x="1382" y="1481" type="line" smooth="no"/>
      <point x="852" y="626" type="line" smooth="no"/>
      <point x="852" y="0" type="line" smooth="no"/>
    </contour>
  </outline>
</glyph>
<glyph name="Z" format="1">
  <advance width="1204"/>
  <unicode hex="005a"/>
  <outline>
    <contour>
      <point x="67" y="0" type="line" smooth="no"/>
      <point x="67" y="246" type="line" smooth="no"/>
      <point x="716" y="1232" type="line" smooth="no"/>
      <point x="102" y="1232" type="line" smooth="no"/>
      <point x="102" y="1481" type="line" smooth="no"/>
      <point x="1131" y="1481" type="line" smooth="no"/>
      <point x="1131" y="1236" type="line" smooth="no"/>
      <point x="485" y="249" type="line" smooth="no"/>
      <point x="1166" y="249" type="line" smooth="no"/>
      <point x="1166" y="0" type="line" smooth="no"/>
    </contour>
  </outline>
</glyph>
<glyph name="bracketleft" format="1">
  <advance width="792"/>
  <unicode hex="005b"/>
  <outline>
    <contour>
      <point x="128" y="-337" type="line" smooth="no"/>
      <point x="128" y="1481" type="line" smooth="no"/>
      <point x="699" y="1481" type="line" smooth="no"/>
      <point x="699" y="1268" type="line" smooth="no"/>
      <point x="418" y="1268" type="line" smooth="no"/>
      <point x="418" y="-125" type="line" smooth="no"/>
      <point x="699" y="-125" type="line" smooth="no"/>
      <point x="699" y="-337" type="line" smooth="no"/>
    </contour>
  </outline>
</glyph>
<glyph name="backslash" format="1">
  <advance width="1040"/>
  <unicode hex="005c"/>
  <outline>
    <contour>
      <point x="662" y="0" type="line" smooth="no"/>
      <point x="141" y="1481" type="line" smooth="no"/>
      <point x="421" y="1481" type="line" smooth="no"/>
      <point x="943" y="0" type="line" smooth="no"/>
    </contour>
  </outline>
</glyph>
<glyph name="underscore" format="1">
  <advance width="1041"/>
  <unicode hex="005f"/>
  <outline>
    <contour>
      <point x="-8" y="-254" type="line" smooth="no"/>
      <point x="-8" y="-93" type="line" smooth="no"/>
      <point x="1050" y="-93" type="line" smooth="no"/>
      <point x="1050" y="-254" type="line" smooth="no"/>
    </contour>
  </outline>
</glyph>
<glyph name="g" format="1">
  <advance width="1183"/>
  <unicode hex="0067"/>
  <outline>
    <contour>
      <point x="556" y="-399" type="curve" smooth="yes"/>
      <point x="405" y="-399"/>
      <point x="260" y="-361"/>
      <point x="165" y="-317" type="curve" smooth="no"/>
      <point x="216" y="-102" type="line" smooth="no"/>
      <point x="267" y="-125"/>
      <point x="399" y="-168"/>
      <point x="524" y="-168" type="curve" smooth="yes"/>
      <point x="714" y="-168"/>
      <point x="772" y="-95"/>
      <point x="774" y="79" type="curve" smooth="yes"/>
      <point x="774" y="108" type="line" smooth="no"/>
      <point x="724" y="41"/>
      <point x="632" y="0"/>
      <point x="538" y="0" type="curve" smooth="yes"/>
      <point x="253" y="0"/>
      <point x="81" y="180"/>
      <point x="81" y="539" type="curve" smooth="yes"/>
      <point x="81" y="855"/>
      <point x="223" y="1059"/>
      <point x="494" y="1059" type="curve" smooth="yes"/>
      <point x="602" y="1059"/>
      <point x="701" y="1021"/>
      <point x="766" y="924" type="curve" smooth="no"/>
      <point x="764" y="1035" type="line" smooth="no"/>
      <point x="1081" y="1035" type="line" smooth="no"/>
      <point x="1081" y="96" type="line" smooth="yes"/>
      <point x="1081" y="-276"/>
      <point x="851" y="-399"/>
    </contour>
    <contour>
      <point x="609" y="226" type="curve" smooth="yes"/>
      <point x="667" y="226"/>
      <point x="723" y="251"/>
      <point x="766" y="287" type="curve" smooth="no"/>
      <point x="766" y="799" type="line" smooth="no"/>
      <point x="723" y="817"/>
      <point x="669" y="835"/>
      <point x="613" y="835" type="curve" smooth="yes"/>
      <point x="485" y="835"/>
      <point x="394" y="734"/>
      <point x="394" y="543" type="curve" smooth="yes"/>
      <point x="394" y="313"/>
      <point x="467" y="226"/>
    </contour>
  </outline>
</glyph>
<glyph name="h" format="1">
  <advance width="1186"/>
  <unicode hex="0068"/>
  <outline>
    <contour>
      <point x="119" y="0" type="line" smooth="no"/>
      <point x="119" y="1481" type="line" smooth="no"/>
      <point x="428" y="1481" type="line" smooth="no"/>
      <point x="428" y="870" type="line" smooth="no"/>
      <point x="446" y="907"/>
      <point x="561" y="1059"/>
      <point x="752" y="1059" type="curve" smooth="yes"/>
      <point x="943" y="1059"/>
      <point x="1085" y="930"/>
      <point x="1085" y="684" type="curve" smooth="yes"/>
      <point x="1085" y="0" type="line" smooth="no"/>
      <point x="776" y="0" type="line" smooth="no"/>
      <point x="776" y="592" type="line" smooth="yes"/>
      <point x="776" y="755"/>
      <point x="730" y="818"/>
      <point x="611" y="818" type="curve" smooth="yes"/>
      <point x="518" y="818"/>
      <point x="428" y="736"/>
      <point x="428" y="662" type="curve" smooth="yes"/>
      <point x="428" y="0" type="line" smooth="no"/>
    </contour>
  </outline>
</glyph>
<glyph name="i" format="1">
  <advance width="603"/>
  <unicode hex="0069"/>
  <outline>
    <contour>
      <point x="147" y="0" type="line" smooth="no"/>
      <point x="147" y="1035" type="line" smooth="no"/>
      <point x="456" y="1035" type="line" smooth="no"/>
      <point x="456" y="0" type="line" smooth="no"/>
    </contour>
    <contour>
      <point x="301" y="1169" type="curve" smooth="yes"/>
      <point x="180" y="1169"/>
      <point x="119" y="1256"/>
      <point x="119" y="1343" type="curve" smooth="yes"/>
      <point x="119" y="1431"/>
      <point x="179" y="1518"/>
      <point x="301" y="1518" type="curve" smooth="yes"/>
      <point x="422" y="1518"/>
      <point x="484" y="1430"/>
      <point x="484" y="1342" type="curve" smooth="yes"/>
      <point x="484" y="1256"/>
      <point x="423" y="1169"/>
    </contour>
  </outline>
</glyph>
<glyph name="j" format="1">
  <advance width="626"/>
  <unicode hex="006a"/>
  <outline>
    <contour>
      <point x="131" y="-391" type="curve" smooth="yes"/>
      <point x="28" y="-391"/>
      <point x="-43" y="-382"/>
      <point x="-75" y="-379" type="curve" smooth="no"/>
      <point x="-75" y="-159" type="line" smooth="no"/>
      <point x="-64" y="-160"/>
      <point x="-7" y="-164"/>
      <point x="24" y="-164" type="curve" smooth="yes"/>
      <point x="126" y="-164"/>
      <point x="190" y="-137"/>
      <point x="190" y="66" type="curve" smooth="yes"/>
      <point x="190" y="1035" type="line" smooth="no"/>
      <point x="499" y="1035" type="line" smooth="no"/>
      <point x="499" y="-42" type="line" smooth="yes"/>
      <point x="499" y="-262"/>
      <point x="362" y="-391"/>
    </contour>
    <contour>
      <point x="343" y="1166" type="curve" smooth="yes"/>
      <point x="221" y="1166"/>
      <point x="161" y="1252"/>
      <point x="161" y="1339" type="curve" smooth="yes"/>
      <point x="161" y="1426"/>
      <point x="221" y="1512"/>
      <point x="343" y="1512" type="curve" smooth="yes"/>
      <point x="464" y="1512"/>
      <point x="523" y="1426"/>
      <point x="523" y="1339" type="curve" smooth="yes"/>
      <point x="523" y="1252"/>
      <point x="464" y="1166"/>
    </contour>
  </outline>
</glyph>
<glyph name="r" format="1">
  <advance width="839"/>
  <unicode hex="0072"/>
  <outline>
    <contour>
      <point x="119" y="0" type="line" smooth="no"/>
      <point x="119" y="1035" type="line" smooth="no"/>
      <point x="428" y="1035" type="line" smooth="no"/>
      <point x="428" y="904" type="line" smooth="no"/>
      <point x="431" y="908"/>
      <point x="435" y="911"/>
      <point x="438" y="915" type="curve" smooth="yes"/>
      <point x="499" y="975"/>
      <point x="606" y="1038"/>
      <point x="726" y="1038" type="curve" smooth="yes"/>
      <point x="762" y="1038"/>
      <point x="804" y="1029"/>
      <point x="830" y="1016" type="curve" smooth="no"/>
      <point x="782" y="743" type="line" smooth="no"/>
      <point x="750" y="758"/>
      <point x="700" y="774"/>
      <point x="641" y="774" type="curve" smooth="yes"/>
      <point x="580" y="774"/>
      <point x="474" y="759"/>
      <point x="428" y="697" type="curve" smooth="no"/>
      <point x="428" y="0" type="line" smooth="no"/>
    </contour>
  </outline>
</glyph>
<glyph name="t" format="1">
  <advance width="819"/>
  <unicode hex="0074"/>
  <outline>
    <contour>
      <point x="515" y="-13" type="curve" smooth="yes"/>
      <point x="266" y="-13"/>
      <point x="160" y="90"/>
      <point x="160" y="328" type="curve" smooth="yes"/>
      <point x="160" y="830" type="line" smooth="no"/>
      <point x="36" y="830" type="line" smooth="no"/>
      <point x="36" y="1035" type="line" smooth="no"/>
      <point x="160" y="1035" type="line" smooth="no"/>
      <point x="160" y="1291" type="line" smooth="no"/>
      <point x="469" y="1360" type="line" smooth="no"/>
      <point x="469" y="1035" type="line" smooth="no"/>
      <point x="749" y="1035" type="line" smooth="no"/>
      <point x="749" y="830" type="line" smooth="no"/>
      <point x="469" y="830" type="line" smooth="no"/>
      <point x="469" y="353" type="line" smooth="yes"/>
      <point x="469" y="240"/>
      <point x="538" y="211"/>
      <point x="622" y="211" type="curve" smooth="yes"/>
      <point x="673" y="211"/>
      <point x="723" y="219"/>
      <point x="749" y="224" type="curve" smooth="no"/>
      <point x="749" y="5" type="line" smooth="no"/>
      <point x="683" y="-8"/>
      <point x="625" y="-13"/>
    </contour>
  </outline>
</glyph>
<glyph name="x" format="1">
  <advance width="1131"/>
  <unicode hex="0078"/>
  <outline>
    <contour>
      <point x="-6" y="0" type="line" smooth="no"/>
      <point x="385" y="520" type="line" smooth="no"/>
      <point x="1" y="1035" type="line" smooth="no"/>
      <point x="361" y="1035" type="line" smooth="no"/>
      <point x="507" y="824" type="line" smooth="no"/>
      <point x="567" y="733" type="line" smooth="no"/>
      <point x="623" y="817" type="line" smooth="no"/>
      <point x="773" y="1035" type="line" smooth="no"/>
      <point x="1132" y="1035" type="line" smooth="no"/>
      <point x="749" y="524" type="line" smooth="no"/>
      <point x="1138" y="0" type="line" smooth="no"/>
      <point x="780" y="0" type="line" smooth="no"/>
      <point x="625" y="224" type="line" smooth="no"/>
      <point x="567" y="307" type="line" smooth="no"/>
      <point x="510" y="223" type="line" smooth="no"/>
      <point x="352" y="0" type="line" smooth="no"/>
    </contour>
  </outline>
</glyph>
<glyph name="z" format="1">
  <advance width="995"/>
  <unicode hex="007a"/>
  <outline>
    <contour>
      <point x="70" y="0" type="line" smooth="no"/>
      <point x="70" y="209" type="line" smooth="no"/>
      <point x="557" y="811" type="line" smooth="no"/>
      <point x="96" y="811" type="line" smooth="no"/>
      <point x="96" y="1035" type="line" smooth="no"/>
      <point x="918" y="1035" type="line" smooth="no"/>
      <point x="918" y="831" type="line" smooth="no"/>
      <point x="436" y="229" type="line" smooth="no"/>
      <point x="925" y="229" type="line" smooth="no"/>
      <point x="925" y="0" type="line" smooth="no"/>
    </contour>
  </outline>
</glyph>
<glyph name="bar" format="1">
  <advance width="951"/>
  <unicode hex="007c"/>
  <outline>
    <contour>
      <point x="342" y="-425" type="line" smooth="no"/>
      <point x="342" y="1481" type="line" smooth="no"/>
      <point x="611" y="1481" type="line" smooth="no"/>
      <point x="611" y="-425" type="line" smooth="no"/>
    </contour>
  </outline>
</glyph>
<glyph name="asciitilde" format="1">
  <advance width="1456"/>
  <unicode hex="007e"/>
  <outline>
    <contour>
      <point x="1004" y="310" type="curve" smooth="yes"/>
      <point x="736" y="310"/>
      <point x="552" y="578"/>
      <point x="454" y="578" type="curve" smooth="yes"/>
      <point x="373" y="578"/>
      <point x="321" y="476"/>
      <point x="315" y="307" type="curve" smooth="no"/>
      <point x="100" y="351" type="line" smooth="no"/>
      <point x="115" y="683"/>
      <point x="247" y="845"/>
      <point x="461" y="845" type="curve" smooth="yes"/>
      <point x="665" y="845"/>
      <point x="836" y="571"/>
      <point x="1001" y="571" type="curve" smooth="yes"/>
      <point x="1135" y="571"/>
      <point x="1138" y="735"/>
      <point x="1144" y="847" type="curve" smooth="no"/>
      <point x="1361" y="801" type="line" smooth="no"/>
      <point x="1346" y="476"/>
      <point x="1232" y="310"/>
    </contour>
  </outline>
</glyph>
<glyph name="cent" format="1">
  <advance width="1147"/>
  <unicode hex="00a2"/>
  <outline>
    <contour>
      <point x="698" y="-19.6889" type="curve" smooth="no"/>
      <point x="698" y="-292" type="line" smooth="no"/>
      <point x="582" y="-292" type="line" smooth="no"/>
      <point x="582" y="-20.0681" type="line" smooth="no"/>
      <point x="302.323" y="-0.798054"/>
      <point x="81" y="163.566"/>
      <point x="81" y="515" type="curve" smooth="yes"/>
      <point x="81" y="889.41"/>
      <point x="323.481" y="1040.81"/>
      <point x="582" y="1057.44" type="curve" smooth="no"/>
      <point x="582" y="1311" type="line" smooth="no"/>
      <point x="698" y="1311" type="line" smooth="no"/>
      <point x="698" y="1056.23" type="line" smooth="no"/>
      <point x="799.14" y="1047.68"/>
      <point x="900.206" y="1018.45"/>
      <point x="1010" y="957" type="curve" smooth="no"/>
      <point x="963" y="739" type="line" smooth="no"/>
      <point x="897.48" y="789.544"/>
      <point x="787.28" y="829.575"/>
      <point x="698" y="834.492" type="curve" smooth="no"/>
      <point x="698" y="202.483" type="line" smooth="no"/>
      <point x="817.692" y="207.765"/>
      <point x="905.412" y="255.275"/>
      <point x="962" y="293" type="curve" smooth="no"/>
      <point x="1010" y="77" type="line" smooth="no"/>
      <point x="918.035" y="26.2904"/>
      <point x="815.728" y="-10.3837"/>
    </contour>
    <contour>
      <point x="582" y="213.945" type="curve" smooth="no"/>
      <point x="582" y="821.046" type="line" smooth="no"/>
      <point x="473.045" y="787.412"/>
      <point x="395" y="691.253"/>
      <point x="395" y="514" type="curve" smooth="yes"/>
      <point x="395" y="337.363"/>
      <point x="470.917" y="244.799"/>
    </contour>
  </outline>
</glyph>
<glyph name="section" format="1">
  <advance width="1173"/>
  <unicode hex="00a7"/>
  <outline>
    <contour>
      <point x="532" y="-58" type="curve" smooth="yes"/>
      <point x="384" y="-58"/>
      <point x="233" y="-22"/>
      <point x="131" y="36" type="curve" smooth="no"/>
      <point x="171" y="286" type="line" smooth="no"/>
      <point x="223" y="246"/>
      <point x="342" y="162"/>
      <point x="534" y="162" type="curve" smooth="yes"/>
      <point x="628" y="162"/>
      <point x="719" y="192"/>
      <point x="719" y="258" type="curve" smooth="yes"/>
      <point x="719" y="335"/>
      <point x="609" y="348"/>
      <point x="484" y="372" type="curve" smooth="yes"/>
      <point x="275" y="412"/>
      <point x="129" y="498"/>
      <point x="129" y="693" type="curve" smooth="yes"/>
      <point x="129" y="793"/>
      <point x="172" y="877"/>
      <point x="257" y="933" type="curve" smooth="no"/>
      <point x="177" y="984"/>
      <point x="129" y="1060"/>
      <point x="129" y="1172" type="curve" smooth="yes"/>
      <point x="129" y="1365"/>
      <point x="302" y="1504"/>
      <point x="591" y="1504" type="curve" smooth="yes"/>
      <point x="751" y="1504"/>
      <point x="871" y="1472"/>
      <point x="965" y="1425" type="curve" smooth="no"/>
      <point x="932" y="1188" type="line" smooth="no"/>
      <point x="870" y="1228"/>
      <point x="746" y="1287"/>
      <point x="605" y="1287" type="curve" smooth="yes"/>
      <point x="506" y="1287"/>
      <point x="441" y="1250"/>
      <point x="441" y="1193" type="curve" smooth="yes"/>
      <point x="441" y="1135"/>
      <point x="483" y="1120"/>
      <point x="672" y="1088" type="curve" smooth="yes"/>
      <point x="912" y="1047"/>
      <point x="1030" y="958"/>
      <point x="1030" y="762" type="curve" smooth="yes"/>
      <point x="1030" y="665"/>
      <point x="989" y="584"/>
      <point x="910" y="526" type="curve" smooth="no"/>
      <point x="991" y="473"/>
      <point x="1030" y="397"/>
      <point x="1030" y="283" type="curve" smooth="yes"/>
      <point x="1030" y="81"/>
      <point x="841" y="-58"/>
    </contour>
    <contour>
      <point x="695" y="604" type="curve" smooth="no"/>
      <point x="731.845" y="626.324"/>
      <point x="768.782" y="669.026"/>
      <point x="769.02" y="725.742" type="curve" smooth="yes"/>
      <point x="769.749" y="823.312"/>
      <point x="579.746" y="831.129"/>
      <point x="454" y="857" type="curve" smooth="no"/>
      <point x="421.653" y="839.515"/>
      <point x="382.428" y="789.93"/>
      <point x="382.428" y="742.322" type="curve" smooth="yes"/>
      <point x="380.987" y="646.234"/>
      <point x="504.622" y="643.252"/>
    </contour>
  </outline>
</glyph>
<glyph name="dieresis" format="1">
  <advance width="799"/>
  <unicode hex="00a8"/>
  <outline>
    <contour>
      <point x="99" y="1185" type="line" smooth="no"/>
      <point x="99" y="1439" type="line" smooth="no"/>
      <point x="329" y="1439" type="line" smooth="no"/>
      <point x="329" y="1185" type="line" smooth="no"/>
    </contour>
    <contour>
      <point x="468" y="1185" type="line" smooth="no"/>
      <point x="468" y="1439" type="line" smooth="no"/>
      <point x="698" y="1439" type="line" smooth="no"/>
      <point x="698" y="1185" type="line" smooth="no"/>
    </contour>
  </outline>
</glyph>
<glyph name="ordfeminine" format="1">
  <advance width="852"/>
  <unicode hex="00aa"/>
  <outline>
    <contour>
      <point x="290" y="645" type="curve" smooth="yes"/>
      <point x="162" y="645"/>
      <point x="44" y="709"/>
      <point x="44" y="869" type="curve" smooth="yes"/>
      <point x="44" y="1094"/>
      <point x="268" y="1120"/>
      <point x="538" y="1140" type="curve" smooth="no"/>
      <point x="538" y="1230"/>
      <point x="483" y="1257"/>
      <point x="357" y="1257" type="curve" smooth="yes"/>
      <point x="254" y="1257"/>
      <point x="155" y="1221"/>
      <point x="130" y="1203" type="curve" smooth="no"/>
      <point x="95" y="1364" type="line" smooth="no"/>
      <point x="150" y="1398"/>
      <point x="271" y="1422"/>
      <point x="393" y="1422" type="curve" smooth="yes"/>
      <point x="647" y="1422"/>
      <point x="768" y="1346"/>
      <point x="768" y="1157" type="curve" smooth="yes"/>
      <point x="768" y="659" type="line" smooth="no"/>
      <point x="538" y="659" type="line" smooth="no"/>
      <point x="538" y="740" type="line" smooth="no"/>
      <point x="536" y="740" type="line" smooth="no"/>
      <point x="476" y="682"/>
      <point x="383" y="645"/>
    </contour>
    <contour>
      <point x="381" y="802" type="curve" smooth="yes"/>
      <point x="447" y="802"/>
      <point x="517" y="836"/>
      <point x="538" y="872" type="curve" smooth="no"/>
      <point x="538" y="992" type="line" smooth="no"/>
      <point x="385" y="987"/>
      <point x="279" y="973"/>
      <point x="279" y="888" type="curve" smooth="yes"/>
      <point x="279" y="832"/>
      <point x="319" y="802"/>
    </contour>
  </outline>
</glyph>
<glyph name="guillemotleft" format="1">
  <advance width="1045"/>
  <unicode hex="00ab"/>
  <outline>
    <contour>
      <point x="538" y="135" type="line" smooth="no"/>
      <point x="115" y="525" type="line" smooth="no"/>
      <point x="115" y="658" type="line" smooth="no"/>
      <point x="538" y="1052" type="line" smooth="no"/>
      <point x="538" y="774" type="line" smooth="no"/>
      <point x="348" y="591" type="line" smooth="no"/>
      <point x="348" y="591"/>
      <point x="517" y="433"/>
      <point x="538" y="415" type="curve" smooth="no"/>
    </contour>
    <contour>
      <point x="964" y="135" type="line" smooth="no"/>
      <point x="539" y="525" type="line" smooth="no"/>
      <point x="539" y="658" type="line" smooth="no"/>
      <point x="964" y="1052" type="line" smooth="no"/>
      <point x="964" y="774" type="line" smooth="no"/>
      <point x="773" y="591" type="line" smooth="no"/>
      <point x="773" y="591"/>
      <point x="942" y="433"/>
      <point x="964" y="415" type="curve" smooth="no"/>
    </contour>
  </outline>
</glyph>
<glyph name="uni00B2" format="1">
  <advance width="742"/>
  <unicode hex="00b2"/>
  <outline>
    <contour>
      <point x="90" y="647" type="line" smooth="no"/>
      <point x="90" y="768" type="line" smooth="no"/>
      <point x="210" y="876"/>
      <point x="447" y="1093"/>
      <point x="447" y="1220" type="curve" smooth="yes"/>
      <point x="447" y="1299"/>
      <point x="403" y="1331"/>
      <point x="328" y="1331" type="curve" smooth="yes"/>
      <point x="259" y="1331"/>
      <point x="170" y="1293"/>
      <point x="140" y="1271" type="curve" smooth="no"/>
      <point x="102" y="1405" type="line" smooth="no"/>
      <point x="143" y="1441"/>
      <point x="260" y="1481"/>
      <point x="350" y="1481" type="curve" smooth="yes"/>
      <point x="532" y="1481"/>
      <point x="631" y="1385"/>
      <point x="631" y="1237" type="curve" smooth="yes"/>
      <point x="631" y="1074"/>
      <point x="459" y="904"/>
      <point x="324" y="788" type="curve" smooth="no"/>
      <point x="651" y="788" type="line" smooth="no"/>
      <point x="651" y="647" type="line" smooth="no"/>
    </contour>
  </outline>
</glyph>
<glyph name="uni00B3" format="1">
  <advance width="677"/>
  <unicode hex="00b3"/>
  <outline>
    <contour>
      <point x="316" y="548" type="curve" smooth="yes"/>
      <point x="192" y="548"/>
      <point x="113" y="578"/>
      <point x="63" y="613" type="curve" smooth="no"/>
      <point x="63" y="763" type="line" smooth="no"/>
      <point x="95" y="763" type="line" smooth="no"/>
      <point x="126" y="732"/>
      <point x="183" y="690"/>
      <point x="281" y="689" type="curve" smooth="yes"/>
      <point x="370" y="688"/>
      <point x="456" y="716"/>
      <point x="456" y="815" type="curve" smooth="yes"/>
      <point x="456" y="886"/>
      <point x="411" y="933"/>
      <point x="295" y="933" type="curve" smooth="yes"/>
      <point x="221" y="933" type="line" smooth="no"/>
      <point x="221" y="1048" type="line" smooth="no"/>
      <point x="264" y="1048" type="line" smooth="yes"/>
      <point x="372" y="1048"/>
      <point x="428" y="1075"/>
      <point x="428" y="1152" type="curve" smooth="yes"/>
      <point x="428" y="1218"/>
      <point x="356" y="1245"/>
      <point x="290" y="1245" type="curve" smooth="yes"/>
      <point x="205" y="1245"/>
      <point x="137" y="1203"/>
      <point x="102" y="1170" type="curve" smooth="no"/>
      <point x="63" y="1170" type="line" smooth="no"/>
      <point x="63" y="1318" type="line" smooth="no"/>
      <point x="113" y="1354"/>
      <point x="220" y="1387"/>
      <point x="316" y="1387" type="curve" smooth="yes"/>
      <point x="513" y="1387"/>
      <point x="607" y="1301"/>
      <point x="613" y="1184" type="curve" smooth="yes"/>
      <point x="618" y="1071"/>
      <point x="557" y="1019"/>
      <point x="487" y="988" type="curve" smooth="no"/>
      <point x="560" y="966"/>
      <point x="641" y="908"/>
      <point x="641" y="802" type="curve" smooth="yes"/>
      <point x="641" y="652"/>
      <point x="523" y="548"/>
    </contour>
  </outline>
</glyph>
<glyph name="acute" format="1">
  <advance width="748"/>
  <unicode hex="00b4"/>
  <outline>
    <contour>
      <point x="153" y="1160" type="line" smooth="no"/>
      <point x="349" y="1506" type="line" smooth="no"/>
      <point x="661" y="1506" type="line" smooth="no"/>
      <point x="364" y="1160" type="line" smooth="no"/>
    </contour>
  </outline>
</glyph>
<glyph name="uni00B9" format="1">
  <advance width="589"/>
  <unicode hex="00b9"/>
  <outline>
    <contour>
      <point x="92" y="554" type="line" smooth="no"/>
      <point x="92" y="692" type="line" smooth="no"/>
      <point x="219" y="692" type="line" smooth="no"/>
      <point x="219" y="1195" type="line" smooth="no"/>
      <point x="59" y="1162" type="line" smooth="no"/>
      <point x="59" y="1276" type="line" smooth="no"/>
      <point x="152" y="1290"/>
      <point x="206" y="1318"/>
      <point x="224" y="1378" type="curve" smooth="no"/>
      <point x="404" y="1378" type="line" smooth="no"/>
      <point x="404" y="692" type="line" smooth="no"/>
      <point x="529" y="692" type="line" smooth="no"/>
      <point x="529" y="554" type="line" smooth="no"/>
    </contour>
  </outline>
</glyph>
<glyph name="ordmasculine" format="1">
  <advance width="923"/>
  <unicode hex="00ba"/>
  <outline>
    <contour>
      <point x="474" y="811" type="curve" smooth="yes"/>
      <point x="575" y="811"/>
      <point x="622" y="900"/>
      <point x="622" y="1036" type="curve" smooth="yes"/>
      <point x="622" y="1191"/>
      <point x="570" y="1260"/>
      <point x="470" y="1260" type="curve" smooth="yes"/>
      <point x="392" y="1260"/>
      <point x="319" y="1220"/>
      <point x="319" y="1037" type="curve" smooth="yes"/>
      <point x="319" y="883"/>
      <point x="370" y="811"/>
    </contour>
    <contour>
      <point x="470" y="644" type="curve" smooth="yes"/>
      <point x="217" y="644"/>
      <point x="72" y="784"/>
      <point x="72" y="1038" type="curve" smooth="yes"/>
      <point x="72" y="1297"/>
      <point x="221" y="1430"/>
      <point x="470" y="1430" type="curve" smooth="yes"/>
      <point x="722" y="1430"/>
      <point x="868" y="1296"/>
      <point x="868" y="1037" type="curve" smooth="yes"/>
      <point x="868" y="782"/>
      <point x="721" y="644"/>
    </contour>
  </outline>
</glyph>
<glyph name="onequarter" format="1">
  <advance width="1513"/>
  <unicode hex="00bc"/>
  <outline>
    <contour>
      <point x="1187" y="0" type="line" smooth="no"/>
      <point x="1187" y="121" type="line" smooth="no"/>
      <point x="821" y="121" type="line" smooth="no"/>
      <point x="821" y="241" type="line" smooth="no"/>
      <point x="1121" y="819" type="line" smooth="no"/>
      <point x="1366" y="819" type="line" smooth="no"/>
      <point x="1366" y="241" type="line" smooth="no"/>
      <point x="1447" y="241" type="line" smooth="no"/>
      <point x="1447" y="121" type="line" smooth="no"/>
      <point x="1366" y="121" type="line" smooth="no"/>
      <point x="1366" y="0" type="line" smooth="no"/>
    </contour>
    <contour>
      <point x="321" y="0" type="line" smooth="no"/>
      <point x="1133" y="1481" type="line" smooth="no"/>
      <point x="1262" y="1481" type="line" smooth="no"/>
      <point x="448" y="0" type="line" smooth="no"/>
    </contour>
    <contour>
      <point x="971" y="241" type="line" smooth="no"/>
      <point x="1187" y="241" type="line" smooth="no"/>
      <point x="1187" y="669" type="line" smooth="no"/>
    </contour>
    <contour>
      <point x="84" y="657" type="line" smooth="no"/>
      <point x="84" y="795" type="line" smooth="no"/>
      <point x="211" y="795" type="line" smooth="no"/>
      <point x="211" y="1298" type="line" smooth="no"/>
      <point x="51" y="1265" type="line" smooth="no"/>
      <point x="51" y="1379" type="line" smooth="no"/>
      <point x="144" y="1393"/>
      <point x="198" y="1421"/>
      <point x="216" y="1481" type="curve" smooth="no"/>
      <point x="396" y="1481" type="line" smooth="no"/>
      <point x="396" y="795" type="line" smooth="no"/>
      <point x="521" y="795" type="line" smooth="no"/>
      <point x="521" y="657" type="line" smooth="no"/>
    </contour>
  </outline>
</glyph>
<glyph name="onehalf" format="1">
  <advance width="1595"/>
  <unicode hex="00bd"/>
  <outline>
    <contour>
      <point x="314" y="0" type="line" smooth="no"/>
      <point x="1128" y="1481" type="line" smooth="no"/>
      <point x="1255" y="1481" type="line" smooth="no"/>
      <point x="441" y="0" type="line" smooth="no"/>
    </contour>
    <contour>
      <point x="958" y="0" type="line" smooth="no"/>
      <point x="958" y="121" type="line" smooth="no"/>
      <point x="1078" y="229"/>
      <point x="1315" y="446"/>
      <point x="1315" y="573" type="curve" smooth="yes"/>
      <point x="1315" y="652"/>
      <point x="1271" y="684"/>
      <point x="1196" y="684" type="curve" smooth="yes"/>
      <point x="1127" y="684"/>
      <point x="1038" y="646"/>
      <point x="1008" y="624" type="curve" smooth="no"/>
      <point x="970" y="758" type="line" smooth="no"/>
      <point x="1011" y="794"/>
      <point x="1128" y="834"/>
      <point x="1218" y="834" type="curve" smooth="yes"/>
      <point x="1400" y="834"/>
      <point x="1499" y="738"/>
      <point x="1499" y="590" type="curve" smooth="yes"/>
      <point x="1499" y="427"/>
      <point x="1327" y="257"/>
      <point x="1192" y="141" type="curve" smooth="no"/>
      <point x="1519" y="141" type="line" smooth="no"/>
      <point x="1519" y="0" type="line" smooth="no"/>
    </contour>
    <contour>
      <point x="112.7" y="657" type="line" smooth="no"/>
      <point x="112.7" y="795" type="line" smooth="no"/>
      <point x="239.7" y="795" type="line" smooth="no"/>
      <point x="239.7" y="1298" type="line" smooth="no"/>
      <point x="79.7002" y="1265" type="line" smooth="no"/>
      <point x="79.7002" y="1379" type="line" smooth="no"/>
      <point x="172.7" y="1393"/>
      <point x="226.7" y="1421"/>
      <point x="244.7" y="1481" type="curve" smooth="no"/>
      <point x="424.7" y="1481" type="line" smooth="no"/>
      <point x="424.7" y="795" type="line" smooth="no"/>
      <point x="549.7" y="795" type="line" smooth="no"/>
      <point x="549.7" y="657" type="line" smooth="no"/>
    </contour>
  </outline>
</glyph>
<glyph name="Thorn" format="1">
  <advance width="1360"/>
  <unicode hex="00de"/>
  <outline>
    <contour>
      <point x="161" y="0" type="line" smooth="no"/>
      <point x="161" y="1481" type="line" smooth="no"/>
      <point x="505" y="1481" type="line" smooth="no"/>
      <point x="505" y="1286" type="line" smooth="no"/>
      <point x="737" y="1286" type="line" smooth="yes"/>
      <point x="1048" y="1286"/>
      <point x="1299" y="1158"/>
      <point x="1299" y="817" type="curve" smooth="yes"/>
      <point x="1299" y="519"/>
      <point x="1079" y="329"/>
      <point x="716" y="329" type="curve" smooth="yes"/>
      <point x="505" y="329" type="line" smooth="no"/>
      <point x="505" y="0" type="line" smooth="no"/>
    </contour>
    <contour>
      <point x="505" y="575" type="line" smooth="no"/>
      <point x="577" y="575" type="line" smooth="yes"/>
      <point x="779" y="575"/>
      <point x="950" y="601"/>
      <point x="950" y="814" type="curve" smooth="yes"/>
      <point x="950" y="1002"/>
      <point x="801" y="1034"/>
      <point x="632" y="1034" type="curve" smooth="yes"/>
      <point x="505" y="1034" type="line" smooth="no"/>
    </contour>
  </outline>
</glyph>
<glyph name="germandbls" format="1">
  <advance width="1234"/>
  <unicode hex="00df"/>
  <outline>
    <contour>
      <point x="117" y="0" type="line" smooth="no"/>
      <point x="117" y="1031" type="line" smooth="yes"/>
      <point x="117" y="1334"/>
      <point x="286" y="1504"/>
      <point x="624" y="1504" type="curve" smooth="yes"/>
      <point x="934" y="1504"/>
      <point x="1117" y="1362"/>
      <point x="1117" y="1164" type="curve" smooth="yes"/>
      <point x="1117" y="1010"/>
      <point x="1001" y="895"/>
      <point x="866" y="873" type="curve" smooth="no"/>
      <point x="866" y="863" type="line" smooth="no"/>
      <point x="1102" y="809"/>
      <point x="1233" y="617"/>
      <point x="1233" y="455" type="curve" smooth="yes"/>
      <point x="1233" y="164"/>
      <point x="1046" y="-5"/>
      <point x="701" y="-5" type="curve" smooth="yes"/>
      <point x="683" y="-5"/>
      <point x="646" y="-3"/>
      <point x="603" y="-1" type="curve" smooth="no"/>
      <point x="603" y="234" type="line" smooth="no"/>
      <point x="616" y="232"/>
      <point x="630" y="233"/>
      <point x="643" y="233" type="curve" smooth="yes"/>
      <point x="831" y="233"/>
      <point x="918" y="320"/>
      <point x="918" y="465" type="curve" smooth="yes"/>
      <point x="918" y="602"/>
      <point x="801" y="739"/>
      <point x="600" y="739" type="curve" smooth="no"/>
      <point x="600" y="967" type="line" smooth="no"/>
      <point x="711" y="967"/>
      <point x="808" y="1006"/>
      <point x="808" y="1131" type="curve" smooth="yes"/>
      <point x="808" y="1228"/>
      <point x="757" y="1283"/>
      <point x="637" y="1283" type="curve" smooth="yes"/>
      <point x="480" y="1283"/>
      <point x="428" y="1199"/>
      <point x="428" y="1055" type="curve" smooth="yes"/>
      <point x="428" y="0" type="line" smooth="no"/>
    </contour>
  </outline>
</glyph>
<glyph name="oslash" format="1">
  <advance width="1162"/>
  <unicode hex="00f8"/>
  <outline>
    <contour>
      <point x="581" y="-25" type="curve" smooth="yes"/>
      <point x="484" y="-25"/>
      <point x="399" y="-9"/>
      <point x="325" y="25" type="curve" smooth="no"/>
      <point x="229" y="-116" type="line" smooth="no"/>
      <point x="75" y="-116" type="line" smooth="no"/>
      <point x="216" y="92" type="line" smooth="no"/>
      <point x="110" y="183"/>
      <point x="53" y="325"/>
      <point x="53" y="519" type="curve" smooth="yes"/>
      <point x="53" y="878"/>
      <point x="252" y="1059"/>
      <point x="581" y="1059" type="curve" smooth="yes"/>
      <point x="682" y="1059"/>
      <point x="773" y="1041"/>
      <point x="848" y="1004" type="curve" smooth="no"/>
      <point x="931" y="1127" type="line" smooth="no"/>
      <point x="1087" y="1127" type="line" smooth="no"/>
      <point x="955" y="936" type="line" smooth="no"/>
      <point x="1058" y="847"/>
      <point x="1111" y="706"/>
      <point x="1111" y="518" type="curve" smooth="yes"/>
      <point x="1111" y="161"/>
      <point x="914" y="-25"/>
    </contour>
    <contour>
      <point x="389" y="345" type="curve" smooth="no"/>
      <point x="706" y="798" type="line" smooth="no"/>
      <point x="672" y="824"/>
      <point x="629" y="835"/>
      <point x="581" y="835" type="curve" smooth="yes"/>
      <point x="462" y="835"/>
      <point x="367" y="771"/>
      <point x="367" y="517" type="curve" smooth="yes"/>
      <point x="367" y="445"/>
      <point x="374" y="389"/>
    </contour>
    <contour>
      <point x="584" y="201" type="curve" smooth="yes"/>
      <point x="725" y="201"/>
      <point x="796" y="292"/>
      <point x="796" y="516" type="curve" smooth="yes"/>
      <point x="796" y="582"/>
      <point x="792" y="634"/>
      <point x="779" y="677" type="curve" smooth="no"/>
      <point x="466" y="230" type="line" smooth="no"/>
      <point x="500" y="210"/>
      <point x="540" y="201"/>
    </contour>
  </outline>
</glyph>
<glyph name="dcroat" format="1">
  <advance width="1219"/>
  <unicode hex="0111"/>
  <outline>
    <component base="d"/>
    <contour>
      <point x="515" y="1158" type="line" smooth="no"/>
      <point x="515" y="1320" type="line" smooth="no"/>
      <point x="1219" y="1320" type="line" smooth="no"/>
      <point x="1219" y="1158" type="line" smooth="no"/>
    </contour>
  </outline>
</glyph>
<glyph name="oe" format="1">
  <advance width="1865"/>
  <unicode hex="0153"/>
  <outline>
    <contour>
      <point x="579" y="-26" type="curve" smooth="yes"/>
      <point x="258" y="-26"/>
      <point x="48" y="133"/>
      <point x="48" y="517" type="curve" smooth="yes"/>
      <point x="48" y="902"/>
      <point x="258" y="1062"/>
      <point x="579" y="1062" type="curve" smooth="yes"/>
      <point x="744" y="1062"/>
      <point x="886" y="1007"/>
      <point x="957" y="901" type="curve" smooth="no"/>
      <point x="1034" y="989"/>
      <point x="1174" y="1060"/>
      <point x="1330" y="1060" type="curve" smooth="yes"/>
      <point x="1642" y="1060"/>
      <point x="1817" y="872"/>
      <point x="1817" y="565" type="curve" smooth="yes"/>
      <point x="1817" y="446" type="line" smooth="no"/>
      <point x="1107" y="446" type="line" smooth="no"/>
      <point x="1116" y="279"/>
      <point x="1230" y="198"/>
      <point x="1413" y="198" type="curve" smooth="yes"/>
      <point x="1534" y="198"/>
      <point x="1678" y="273"/>
      <point x="1718" y="301" type="curve" smooth="no"/>
      <point x="1752" y="301" type="line" smooth="no"/>
      <point x="1802" y="92" type="line" smooth="no"/>
      <point x="1721" y="36"/>
      <point x="1602" y="-24"/>
      <point x="1382" y="-24" type="curve" smooth="yes"/>
      <point x="1208" y="-24"/>
      <point x="1023" y="48"/>
      <point x="952" y="144" type="curve" smooth="no"/>
      <point x="887" y="54"/>
      <point x="751" y="-26"/>
    </contour>
    <contour>
      <point x="580" y="196" type="curve" smooth="yes"/>
      <point x="716" y="196"/>
      <point x="795" y="291"/>
      <point x="795" y="515" type="curve" smooth="yes"/>
      <point x="795" y="759"/>
      <point x="720" y="841"/>
      <point x="575" y="841" type="curve" smooth="yes"/>
      <point x="473" y="841"/>
      <point x="359" y="792"/>
      <point x="359" y="516" type="curve" smooth="yes"/>
      <point x="359" y="278"/>
      <point x="442" y="196"/>
    </contour>
    <contour>
      <point x="1107" y="634" type="curve" smooth="no"/>
      <point x="1515" y="634" type="line" smooth="no"/>
      <point x="1510" y="765"/>
      <point x="1449" y="856"/>
      <point x="1321" y="856" type="curve" smooth="yes"/>
      <point x="1180" y="856"/>
      <point x="1112" y="755"/>
    </contour>
  </outline>
</glyph>
<glyph name="uni0237" format="1">
  <advance width="575"/>
  <unicode hex="0237"/>
  <outline>
    <contour>
      <point x="105" y="-383" type="curve" smooth="yes"/>
      <point x="0" y="-383"/>
      <point x="-50" y="-378"/>
      <point x="-83" y="-375" type="curve" smooth="no"/>
      <point x="-83" y="-182" type="line" smooth="no"/>
      <point x="-47" y="-185"/>
      <point x="-23" y="-186"/>
      <point x="8" y="-186" type="curve" smooth="yes"/>
      <point x="110" y="-186"/>
      <point x="174" y="-164"/>
      <point x="174" y="39" type="curve" smooth="yes"/>
      <point x="174" y="1041" type="line" smooth="no"/>
      <point x="459" y="1041" type="line" smooth="no"/>
      <point x="459" y="-22" type="line" smooth="yes"/>
      <point x="459" y="-243"/>
      <point x="335" y="-383"/>
    </contour>
  </outline>
</glyph>
<glyph name="uni02C9" format="1">
  <advance width="540"/>
  <unicode hex="02c9"/>
  <outline>
    <contour>
      <point x="-8" y="1168" type="line" smooth="no"/>
      <point x="-8" y="1323" type="line" smooth="no"/>
      <point x="548" y="1323" type="line" smooth="no"/>
      <point x="548" y="1168" type="line" smooth="no"/>
    </contour>
  </outline>
</glyph>
<glyph name="dotaccent" format="1">
  <advance width="363"/>
  <unicode hex="02d9"/>
  <outline>
    <contour>
      <point x="182" y="141" type="curve" smooth="yes"/>
      <point x="75" y="141"/>
      <point x="-14" y="229"/>
      <point x="-14" y="335" type="curve" smooth="yes"/>
      <point x="-14" y="443"/>
      <point x="75" y="530"/>
      <point x="182" y="530" type="curve" smooth="yes"/>
      <point x="290" y="530"/>
      <point x="376" y="443"/>
      <point x="376" y="335" type="curve" smooth="yes"/>
      <point x="376" y="229"/>
      <point x="290" y="141"/>
    </contour>
  </outline>
</glyph>
<glyph name="hungarumlaut" format="1">
  <advance width="807"/>
  <unicode hex="02dd"/>
  <outline>
    <contour>
      <point x="40" y="1160" type="line" smooth="no"/>
      <point x="240" y="1506" type="line" smooth="no"/>
      <point x="541" y="1506" type="line" smooth="no"/>
      <point x="252" y="1160" type="line" smooth="no"/>
    </contour>
    <contour>
      <point x="444" y="1160" type="line" smooth="no"/>
      <point x="646" y="1506" type="line" smooth="no"/>
      <point x="953" y="1506" type="line" smooth="no"/>
      <point x="656" y="1160" type="line" smooth="no"/>
    </contour>
  </outline>
</glyph>
<glyph name="uni0307" format="1">
  <advance width="548"/>
  <unicode hex="0307"/>
  <outline>
    <contour>
      <point x="274" y="131" type="curve" smooth="yes"/>
      <point x="167" y="131"/>
      <point x="79" y="219"/>
      <point x="79" y="325" type="curve" smooth="yes"/>
      <point x="79" y="433"/>
      <point x="167" y="520"/>
      <point x="274" y="520" type="curve" smooth="yes"/>
      <point x="382" y="520"/>
      <point x="469" y="433"/>
      <point x="469" y="325" type="curve" smooth="yes"/>
      <point x="469" y="219"/>
      <point x="382" y="131"/>
    </contour>
  </outline>
</glyph>
<glyph name="Delta" format="1">
  <advance width="1111"/>
  <unicode hex="0394"/>
  <outline>
    <contour>
      <point x="36" y="0" type="line" smooth="no"/>
      <point x="36" y="149" type="line" smooth="no"/>
      <point x="432" y="1376" type="line" smooth="no"/>
      <point x="692" y="1376" type="line" smooth="no"/>
      <point x="1075" y="152" type="line" smooth="no"/>
      <point x="1075" y="0" type="line" smooth="no"/>
    </contour>
    <contour>
      <point x="269" y="178" type="curve" smooth="no"/>
      <point x="831" y="178" type="line" smooth="no"/>
      <point x="831" y="178"/>
      <point x="575" y="1046"/>
      <point x="559" y="1135" type="curve" smooth="no"/>
      <point x="554" y="1135" type="line" smooth="no"/>
      <point x="538" y="1058"/>
      <point x="269" y="178"/>
    </contour>
  </outline>
</glyph>
<glyph name="quoteright" format="1">
  <advance width="490"/>
  <unicode hex="2019"/>
  <outline>
    <contour>
      <point x="75" y="993" type="line" smooth="no"/>
      <point x="174" y="1481" type="line" smooth="no"/>
      <point x="463" y="1481" type="line" smooth="no"/>
      <point x="274" y="993" type="line" smooth="no"/>
    </contour>
  </outline>
</glyph>
<glyph name="quotesinglbase" format="1">
  <advance width="500"/>
  <unicode hex="201a"/>
  <outline>
    <contour>
      <point x="74" y="-244" type="line" smooth="no"/>
      <point x="173" y="243" type="line" smooth="no"/>
      <point x="473" y="243" type="line" smooth="no"/>
      <point x="452" y="183"/>
      <point x="298" y="-244"/>
      <point x="298" y="-244" type="curve" smooth="no"/>
    </contour>
  </outline>
</glyph>
<glyph name="quotedblbase" format="1">
  <advance width="869"/>
  <unicode hex="201e"/>
  <outline>
    <contour>
      <point x="58" y="-244" type="line" smooth="no"/>
      <point x="158" y="243" type="line" smooth="no"/>
      <point x="468" y="243" type="line" smooth="no"/>
      <point x="227" y="-244" type="line" smooth="no"/>
    </contour>
    <contour>
      <point x="435" y="-244" type="line" smooth="no"/>
      <point x="535" y="243" type="line" smooth="no"/>
      <point x="844" y="243" type="line" smooth="no"/>
      <point x="605" y="-244" type="line" smooth="no"/>
    </contour>
  </outline>
</glyph>
<glyph name="daggerdbl" format="1">
  <advance width="1163"/>
  <unicode hex="2021"/>
  <outline>
    <contour>
      <point x="453" y="-47" type="line" smooth="no"/>
      <point x="453" y="336" type="line" smooth="no"/>
      <point x="112" y="336" type="line" smooth="no"/>
      <point x="112" y="543" type="line" smooth="no"/>
      <point x="458" y="543" type="line" smooth="no"/>
      <point x="458" y="860" type="line" smooth="no"/>
      <point x="112" y="860" type="line" smooth="no"/>
      <point x="112" y="1067" type="line" smooth="no"/>
      <point x="456" y="1067" type="line" smooth="no"/>
      <point x="456" y="1436" type="line" smooth="no"/>
      <point x="712" y="1436" type="line" smooth="no"/>
      <point x="712" y="1064" type="line" smooth="no"/>
      <point x="1053" y="1064" type="line" smooth="no"/>
      <point x="1053" y="857" type="line" smooth="no"/>
      <point x="708" y="857" type="line" smooth="no"/>
      <point x="708" y="540" type="line" smooth="no"/>
      <point x="1053" y="540" type="line" smooth="no"/>
      <point x="1053" y="334" type="line" smooth="no"/>
      <point x="710" y="334" type="line" smooth="no"/>
      <point x="710" y="-47" type="line" smooth="no"/>
    </contour>
  </outline>
</glyph>
<glyph name="perthousand" format="1">
  <advance width="2901"/>
  <unicode hex="2030"/>
  <outline>
    <contour>
      <point x="2477" y="197" type="curve" smooth="yes"/>
      <point x="2569" y="197"/>
      <point x="2616" y="309"/>
      <point x="2616" y="419" type="curve" smooth="yes"/>
      <point x="2616" y="528"/>
      <point x="2569" y="636"/>
      <point x="2473" y="636" type="curve" smooth="yes"/>
      <point x="2384" y="636"/>
      <point x="2335" y="518"/>
      <point x="2335" y="407" type="curve" smooth="yes"/>
      <point x="2335" y="301"/>
      <point x="2381" y="197"/>
    </contour>
    <contour>
      <point x="2477" y="0" type="curve" smooth="yes"/>
      <point x="2222" y="0"/>
      <point x="2094" y="205"/>
      <point x="2094" y="412" type="curve" smooth="yes"/>
      <point x="2094" y="621"/>
      <point x="2222" y="830"/>
      <point x="2477" y="830" type="curve" smooth="yes"/>
      <point x="2731" y="830"/>
      <point x="2853" y="630"/>
      <point x="2853" y="424" type="curve" smooth="yes"/>
      <point x="2853" y="214"/>
      <point x="2724" y="0"/>
    </contour>
    <contour>
      <point x="431" y="848" type="curve" smooth="yes"/>
      <point x="521" y="848"/>
      <point x="572" y="964"/>
      <point x="572" y="1076" type="curve" smooth="yes"/>
      <point x="572" y="1181"/>
      <point x="526" y="1285"/>
      <point x="431" y="1285" type="curve" smooth="yes"/>
      <point x="338" y="1285"/>
      <point x="287" y="1171"/>
      <point x="287" y="1060" type="curve" smooth="yes"/>
      <point x="287" y="954"/>
      <point x="333" y="848"/>
    </contour>
    <contour>
      <point x="431" y="651" type="curve" smooth="yes"/>
      <point x="176" y="651"/>
      <point x="48" y="856"/>
      <point x="48" y="1063" type="curve" smooth="yes"/>
      <point x="48" y="1272"/>
      <point x="175" y="1481"/>
      <point x="431" y="1481" type="curve" smooth="yes"/>
      <point x="685" y="1481"/>
      <point x="808" y="1280"/>
      <point x="808" y="1074" type="curve" smooth="yes"/>
      <point x="808" y="863"/>
      <point x="678" y="651"/>
    </contour>
    <contour>
      <point x="496" y="0" type="line" smooth="no"/>
      <point x="1259" y="1481" type="line" smooth="no"/>
      <point x="1512" y="1481" type="line" smooth="no"/>
      <point x="748" y="0" type="line" smooth="no"/>
    </contour>
    <contour>
      <point x="1578" y="196" type="curve" smooth="yes"/>
      <point x="1670" y="196"/>
      <point x="1717" y="308"/>
      <point x="1717" y="418" type="curve" smooth="yes"/>
      <point x="1717" y="527"/>
      <point x="1670" y="635"/>
      <point x="1574" y="635" type="curve" smooth="yes"/>
      <point x="1485" y="635"/>
      <point x="1436" y="517"/>
      <point x="1436" y="406" type="curve" smooth="yes"/>
      <point x="1436" y="300"/>
      <point x="1482" y="196"/>
    </contour>
    <contour>
      <point x="1578" y="-1" type="curve" smooth="yes"/>
      <point x="1323" y="-1"/>
      <point x="1195" y="204"/>
      <point x="1195" y="411" type="curve" smooth="yes"/>
      <point x="1195" y="620"/>
      <point x="1323" y="829"/>
      <point x="1578" y="829" type="curve" smooth="yes"/>
      <point x="1832" y="829"/>
      <point x="1954" y="629"/>
      <point x="1954" y="423" type="curve" smooth="yes"/>
      <point x="1954" y="213"/>
      <point x="1825" y="-1"/>
    </contour>
  </outline>
</glyph>
<glyph name="guilsinglleft" format="1">
  <advance width="679"/>
  <unicode hex="2039"/>
  <outline>
    <contour>
      <point x="607" y="135" type="line" smooth="no"/>
      <point x="607" y="135"/>
      <point x="207" y="456"/>
      <point x="105" y="532" type="curve" smooth="no"/>
      <point x="105" y="644" type="line" smooth="no"/>
      <point x="208" y="729"/>
      <point x="607" y="1052"/>
      <point x="607" y="1052" type="curve" smooth="no"/>
      <point x="607" y="774" type="line" smooth="no"/>
      <point x="381" y="593" type="line" smooth="no"/>
      <point x="458" y="533"/>
      <point x="531" y="477"/>
      <point x="607" y="415" type="curve" smooth="no"/>
    </contour>
  </outline>
</glyph>
<glyph name="fraction" format="1">
  <advance width="792"/>
  <unicode hex="2044"/>
  <outline>
    <contour>
      <point x="-138" y="-13" type="line" smooth="no"/>
      <point x="663" y="1407" type="line" smooth="no"/>
      <point x="923" y="1407" type="line" smooth="no"/>
      <point x="123" y="-13" type="line" smooth="no"/>
    </contour>
  </outline>
</glyph>
<glyph name="trademark" format="1">
  <advance width="1760"/>
  <unicode hex="2122"/>
  <outline>
    <contour>
      <point x="788" y="768" type="line" smooth="no"/>
      <point x="788" y="1482" type="line" smooth="no"/>
      <point x="1068" y="1482" type="line" smooth="no"/>
      <point x="1230" y="1073" type="line" smooth="no"/>
      <point x="1397" y="1482" type="line" smooth="no"/>
      <point x="1664" y="1482" type="line" smooth="no"/>
      <point x="1664" y="768" type="line" smooth="no"/>
      <point x="1495" y="768" type="line" smooth="no"/>
      <point x="1495" y="1325" type="line" smooth="no"/>
      <point x="1482" y="1325" type="line" smooth="no"/>
      <point x="1292" y="877" type="line" smooth="no"/>
      <point x="1165" y="877" type="line" smooth="no"/>
      <point x="974" y="1330" type="line" smooth="no"/>
      <point x="957" y="1330" type="line" smooth="no"/>
      <point x="957" y="768" type="line" smooth="no"/>
    </contour>
    <contour>
      <point x="295" y="768" type="line" smooth="no"/>
      <point x="295" y="1336" type="line" smooth="no"/>
      <point x="90" y="1336" type="line" smooth="no"/>
      <point x="90" y="1482" type="line" smooth="no"/>
      <point x="678" y="1482" type="line" smooth="no"/>
      <point x="678" y="1336" type="line" smooth="no"/>
      <point x="472" y="1336" type="line" smooth="no"/>
      <point x="472" y="768" type="line" smooth="no"/>
    </contour>
  </outline>
</glyph>
<glyph name="partialdiff" format="1">
  <advance width="1103"/>
  <unicode hex="2202"/>
  <outline>
    <contour>
      <point x="453" y="-16" type="curve" smooth="yes"/>
      <point x="202" y="-16"/>
      <point x="56" y="161"/>
      <point x="56" y="399" type="curve" smooth="yes"/>
      <point x="56" y="714"/>
      <point x="255" y="958"/>
      <point x="521" y="958" type="curve" smooth="yes"/>
      <point x="643" y="958"/>
      <point x="728" y="895"/>
      <point x="773" y="821" type="curve" smooth="no"/>
      <point x="777" y="821" type="line" smooth="no"/>
      <point x="778" y="839"/>
      <point x="778" y="860"/>
      <point x="778" y="870" type="curve" smooth="yes"/>
      <point x="778" y="1083"/>
      <point x="700" y="1220"/>
      <point x="552" y="1244" type="curve" smooth="no"/>
      <point x="434" y="1266"/>
      <point x="341" y="1225"/>
      <point x="265" y="1179" type="curve" smooth="no"/>
      <point x="286" y="1382" type="line" smooth="no"/>
      <point x="365" y="1427"/>
      <point x="471" y="1463"/>
      <point x="607" y="1454" type="curve" smooth="yes"/>
      <point x="878" y="1438"/>
      <point x="1034" y="1261"/>
      <point x="1049" y="909" type="curve" smooth="yes"/>
      <point x="1052" y="847"/>
      <point x="1049" y="780"/>
      <point x="1041" y="712" type="curve" smooth="no"/>
      <point x="996" y="267"/>
      <point x="794" y="-16"/>
    </contour>
    <contour>
      <point x="483" y="190" type="curve" smooth="yes"/>
      <point x="620" y="190"/>
      <point x="721" y="382"/>
      <point x="747" y="614" type="curve" smooth="no"/>
      <point x="724" y="701"/>
      <point x="664" y="766"/>
      <point x="574" y="766" type="curve" smooth="yes"/>
      <point x="435" y="766"/>
      <point x="326" y="589"/>
      <point x="326" y="405" type="curve" smooth="yes"/>
      <point x="326" y="270"/>
      <point x="383" y="190"/>
    </contour>
  </outline>
</glyph>
<glyph name="uni2206" format="1">
  <advance width="1100"/>
  <unicode hex="2206"/>
  <outline>
    <contour>
      <point x="81" y="202" type="line" smooth="no"/>
      <point x="82" y="334" type="line" smooth="no"/>
      <point x="488" y="1481" type="line" smooth="no"/>
      <point x="616" y="1481" type="line" smooth="no"/>
      <point x="1019" y="336" type="line" smooth="no"/>
      <point x="1019" y="202" type="line" smooth="no"/>
    </contour>
    <contour>
      <point x="861" y="333" type="line" smooth="no"/>
      <point x="553" y="1275" type="line" smooth="no"/>
      <point x="243" y="334" type="line" smooth="no"/>
    </contour>
  </outline>
</glyph>
<glyph name="product" format="1">
  <advance width="1357"/>
  <unicode hex="220f"/>
  <outline>
    <contour>
      <point x="100" y="0" type="line" smooth="no"/>
      <point x="100" y="1481" type="line" smooth="no"/>
      <point x="1257" y="1481" type="line" smooth="no"/>
      <point x="1257" y="0" type="line" smooth="no"/>
      <point x="963" y="0" type="line" smooth="no"/>
      <point x="963" y="1234" type="line" smooth="no"/>
      <point x="395" y="1234" type="line" smooth="no"/>
      <point x="395" y="0" type="line" smooth="no"/>
    </contour>
  </outline>
</glyph>
<glyph name="summation" format="1">
  <advance width="1199"/>
  <unicode hex="2211"/>
  <outline>
    <contour>
      <point x="89" y="0" type="line" smooth="no"/>
      <point x="89" y="165" type="line" smooth="no"/>
      <point x="597" y="783" type="line" smooth="no"/>
      <point x="110" y="1317" type="line" smooth="no"/>
      <point x="110" y="1481" type="line" smooth="no"/>
      <point x="1078" y="1481" type="line" smooth="no"/>
      <point x="1078" y="1272" type="line" smooth="no"/>
      <point x="439" y="1272" type="line" smooth="no"/>
      <point x="873" y="797" type="line" smooth="no"/>
      <point x="406" y="216" type="line" smooth="no"/>
      <point x="1108" y="216" type="line" smooth="no"/>
      <point x="1108" y="0" type="line" smooth="no"/>
    </contour>
  </outline>
</glyph>
<glyph name="minus" format="1">
  <advance width="1158"/>
  <unicode hex="2212"/>
  <outline>
    <contour>
      <point x="90" y="393" type="line" smooth="no"/>
      <point x="90" y="630" type="line" smooth="no"/>
      <point x="1071" y="630" type="line" smooth="no"/>
      <point x="1071" y="393" type="line" smooth="no"/>
    </contour>
  </outline>
</glyph>
<glyph name="uni2215" format="1">
  <advance width="994"/>
  <unicode hex="2215"/>
  <outline>
    <contour>
      <point x="80" y="0" type="line" smooth="no"/>
      <point x="612" y="1481" type="line" smooth="no"/>
      <point x="894" y="1481" type="line" smooth="no"/>
      <point x="359" y="0" type="line" smooth="no"/>
    </contour>
  </outline>
</glyph>
<glyph name="uni2219" format="1">
  <advance width="450"/>
  <unicode hex="2219"/>
  <outline>
    <contour>
      <point x="227" y="435" type="curve" smooth="yes"/>
      <point x="155" y="435"/>
      <point x="97" y="491"/>
      <point x="97" y="563" type="curve" smooth="yes"/>
      <point x="97" y="635"/>
      <point x="155" y="693"/>
      <point x="227" y="693" type="curve" smooth="yes"/>
      <point x="299" y="693"/>
      <point x="356" y="635"/>
      <point x="356" y="563" type="curve" smooth="yes"/>
      <point x="356" y="491"/>
      <point x="299" y="435"/>
    </contour>
  </outline>
</glyph>
<glyph name="radical" format="1">
  <advance width="1140"/>
  <unicode hex="221a"/>
  <outline>
    <contour>
      <point x="516" y="-99" type="line" smooth="no"/>
      <point x="217" y="653" type="line" smooth="no"/>
      <point x="54" y="635" type="line" smooth="no"/>
      <point x="43" y="777" type="line" smooth="no"/>
      <point x="368" y="817" type="line" smooth="no"/>
      <point x="537" y="361" type="line" smooth="yes"/>
      <point x="557" y="305"/>
      <point x="581" y="230"/>
      <point x="603" y="187" type="curve" smooth="no"/>
      <point x="645" y="370" type="line" smooth="no"/>
      <point x="737" y="747"/>
      <point x="831" y="1121"/>
      <point x="923" y="1497" type="curve" smooth="no"/>
      <point x="1096" y="1497" type="line" smooth="no"/>
      <point x="698" y="-99" type="line" smooth="no"/>
    </contour>
  </outline>
</glyph>
<glyph name="notequal" format="1">
  <advance width="1218"/>
  <unicode hex="2260"/>
  <outline>
    <contour>
      <point x="252" y="51" type="line" smooth="no"/>
      <point x="367" y="271" type="line" smooth="no"/>
      <point x="157" y="271" type="line" smooth="no"/>
      <point x="157" y="436" type="line" smooth="no"/>
      <point x="451" y="436" type="line" smooth="no"/>
      <point x="568" y="664" type="line" smooth="no"/>
      <point x="157" y="664" type="line" smooth="no"/>
      <point x="157" y="830" type="line" smooth="no"/>
      <point x="651" y="830" type="line" smooth="no"/>
      <point x="775" y="1072" type="line" smooth="no"/>
      <point x="966" y="1059" type="line" smooth="no"/>
      <point x="846" y="830" type="line" smooth="no"/>
      <point x="1063" y="830" type="line" smooth="no"/>
      <point x="1063" y="664" type="line" smooth="no"/>
      <point x="763" y="664" type="line" smooth="no"/>
      <point x="644" y="436" type="line" smooth="no"/>
      <point x="1063" y="436" type="line" smooth="no"/>
      <point x="1063" y="271" type="line" smooth="no"/>
      <point x="563" y="271" type="line" smooth="no"/>
      <point x="442" y="39" type="line" smooth="no"/>
    </contour>
  </outline>
</glyph>
<glyph name="f_i" format="1">
  <advance width="1291"/>
  <outline>
    <contour>
      <point x="167" y="0" type="line" smooth="no"/>
      <point x="167" y="830" type="line" smooth="no"/>
      <point x="26" y="830" type="line" smooth="no"/>
      <point x="26" y="1036" type="line" smooth="no"/>
      <point x="167" y="1036" type="line" smooth="no"/>
      <point x="167" y="1076" type="line" smooth="yes"/>
      <point x="167" y="1327"/>
      <point x="278" y="1443"/>
      <point x="545" y="1443" type="curve" smooth="yes"/>
      <point x="619" y="1443"/>
      <point x="670" y="1436"/>
      <point x="725" y="1430" type="curve" smooth="no"/>
      <point x="725" y="1209" type="line" smooth="no"/>
      <point x="688" y="1213"/>
      <point x="648" y="1220"/>
      <point x="606" y="1220" type="curve" smooth="yes"/>
      <point x="511" y="1220"/>
      <point x="467" y="1190"/>
      <point x="467" y="1036" type="curve" smooth="no"/>
      <point x="1146" y="1036" type="line" smooth="no"/>
      <point x="1146" y="0" type="line" smooth="no"/>
      <point x="835" y="0" type="line" smooth="no"/>
      <point x="835" y="830" type="line" smooth="no"/>
      <point x="476" y="830" type="line" smooth="no"/>
      <point x="476" y="0" type="line" smooth="no"/>
    </contour>
    <contour>
      <point x="990" y="1169" type="curve" smooth="yes"/>
      <point x="869" y="1169"/>
      <point x="808" y="1256"/>
      <point x="808" y="1343" type="curve" smooth="yes"/>
      <point x="808" y="1431"/>
      <point x="868" y="1518"/>
      <point x="990" y="1518" type="curve" smooth="yes"/>
      <point x="1111" y="1518"/>
      <point x="1172" y="1430"/>
      <point x="1172" y="1342" type="curve" smooth="yes"/>
      <point x="1172" y="1256"/>
      <point x="1111" y="1169"/>
    </contour>
  </outline>
</glyph>
<glyph name="f_l" format="1">
  <advance width="1355"/>
  <outline>
    <contour>
      <point x="1229" y="-2" type="line" smooth="yes"/>
      <point x="835" y="-2"/>
      <point x="847" y="180"/>
      <point x="847" y="354" type="curve" smooth="yes"/>
      <point x="847" y="1209" type="line" smooth="no"/>
      <point x="809" y="1213"/>
      <point x="679" y="1220"/>
      <point x="637" y="1220" type="curve" smooth="yes"/>
      <point x="541" y="1220"/>
      <point x="467" y="1190"/>
      <point x="467" y="1036" type="curve" smooth="no"/>
      <point x="710" y="1036" type="line" smooth="no"/>
      <point x="710" y="830" type="line" smooth="no"/>
      <point x="476" y="830" type="line" smooth="no"/>
      <point x="476" y="0" type="line" smooth="no"/>
      <point x="167" y="0" type="line" smooth="no"/>
      <point x="167" y="830" type="line" smooth="no"/>
      <point x="26" y="830" type="line" smooth="no"/>
      <point x="26" y="1036" type="line" smooth="no"/>
      <point x="167" y="1036" type="line" smooth="no"/>
      <point x="167" y="1076" type="line" smooth="yes"/>
      <point x="167" y="1327"/>
      <point x="308" y="1443"/>
      <point x="575" y="1443" type="curve" smooth="yes"/>
      <point x="759" y="1443"/>
      <point x="1156" y="1400"/>
      <point x="1156" y="1400" type="curve" smooth="no"/>
      <point x="1156" y="340" type="line" smooth="yes"/>
      <point x="1156" y="262"/>
      <point x="1176" y="212"/>
      <point x="1311" y="212" type="curve" smooth="no"/>
      <point x="1311" y="-2" type="line" smooth="no"/>
    </contour>
  </outline>
</glyph>
